# xmcd
# 
# Track frame offsets:
#     150
#     23560
#     42630
#     61028
#     82415
#     99165
#     121130
#     138963
#     156228
#     176055
#     194680
#     209110
#     221255
#     234753
#     248348
# 
# Disc length: 3567
# 
# Revision: 2
# Processed by: cddbd v1.5.2PL0 Copyright (c) Steve Scherf et al.
# Submitted via: BonkEnc v1.0
# 
DISCID=ca0ded0f
DTITLE=Various Artist - SuperClub presents The End [CD1)
DYEAR=2005
DGENRE=Lounge
TTITLE0=Late Night Sneaky-/ Fuzzy Green Stoplights 
TTITLE1=Ronny Jordan-/ Brighter Day
TTITLE2=Dragonfly-/ Voice Of Unity
TTITLE3=Jurr and Roussia-/ 7 Diamants
TTITLE4=Cosmic Rocker-/ Thank You Larry 
TTITLE5=Water-/ In My Mind
TTITLE6=Urbs-/ So Weit
TTITLE7=Cobblestone Juzz-/ Gumbordinary 
TTITLE8=Tosca-/ Rondo Acapricio
TTITLE9=Nitin Sawhney-/ Dead Man
TTITLE10=Augustus Snow-/ Now Y'Know (It's True)
TTITLE11=Hairy Diamond-/ Givin Up
TTITLE12=Deadbeat-/ N'importe Quoi 
TTITLE13=I.N.T.-/ Dickriders
TTITLE14=Wagon Christ-/ Saddic Gladdic
EXTD=
EXTT0=
EXTT1=
EXTT2=
EXTT3=
EXTT4=
EXTT5=
EXTT6=
EXTT7=
EXTT8=
EXTT9=
EXTT10=
EXTT11=
EXTT12=
EXTT13=
EXTT14=
PLAYORDER=
